<svg width="600" height="600" viewBox="0 0 600 600" fill="none" xmlns="http://www.w3.org/2000/svg">
<rect width="600" height="600" fill="white"/>
<path d="M92.3 432.746H84.7667L84.7262 428.813H91.1862C92.2932 428.813 93.218 428.658 93.9605 428.347C94.7031 428.036 95.2634 427.583 95.6414 426.989C96.0329 426.394 96.2286 425.671 96.2286 424.819C96.2286 423.873 96.0464 423.103 95.6819 422.508C95.3309 421.914 94.7773 421.481 94.0213 421.211C93.2653 420.927 92.3067 420.785 91.1457 420.785H86.569V445.904H81V416.386H91.1457C92.8197 416.386 94.3116 416.548 95.6211 416.872C96.9442 417.183 98.0647 417.67 98.9828 418.332C99.9008 418.994 100.596 419.825 101.069 420.826C101.555 421.826 101.798 423.015 101.798 424.394C101.798 425.61 101.514 426.732 100.947 427.759C100.394 428.773 99.5363 429.597 98.3752 430.233C97.2277 430.868 95.7696 431.233 94.001 431.327L92.3 432.746ZM92.057 445.904H83.1263L85.4552 441.525H92.057C93.164 441.525 94.0753 441.342 94.7908 440.978C95.5199 440.613 96.0599 440.113 96.4109 439.477C96.7754 438.829 96.9577 438.085 96.9577 437.247C96.9577 436.328 96.7957 435.531 96.4717 434.855C96.1611 434.179 95.6616 433.659 94.9731 433.294C94.2981 432.929 93.407 432.746 92.3 432.746H86.5082L86.5487 428.813H93.92L95.1959 430.334C96.8969 430.347 98.2807 430.685 99.3473 431.348C100.427 432.01 101.224 432.861 101.737 433.902C102.25 434.943 102.506 436.065 102.506 437.267C102.506 439.16 102.095 440.748 101.271 442.032C100.461 443.316 99.273 444.282 97.707 444.931C96.1544 445.58 94.2711 445.904 92.057 445.904Z" fill="black"/>
<path d="M116.763 446.31C115.102 446.31 113.611 446.039 112.288 445.499C110.965 444.958 109.837 444.208 108.906 443.248C107.988 442.275 107.279 441.147 106.779 439.863C106.293 438.565 106.05 437.173 106.05 435.686V434.875C106.05 433.186 106.293 431.652 106.779 430.273C107.265 428.881 107.954 427.685 108.845 426.685C109.736 425.684 110.803 424.914 112.045 424.373C113.287 423.833 114.657 423.562 116.155 423.562C117.708 423.562 119.078 423.826 120.266 424.353C121.454 424.867 122.447 425.597 123.243 426.543C124.04 427.489 124.641 428.624 125.046 429.949C125.451 431.26 125.653 432.713 125.653 434.308V436.558H108.48V432.868H120.388V432.463C120.361 431.611 120.199 430.834 119.902 430.131C119.605 429.415 119.146 428.847 118.525 428.428C117.904 427.996 117.101 427.779 116.115 427.779C115.318 427.779 114.623 427.955 114.029 428.306C113.449 428.644 112.963 429.131 112.571 429.766C112.193 430.388 111.91 431.131 111.721 431.996C111.532 432.861 111.437 433.821 111.437 434.875V435.686C111.437 436.605 111.559 437.457 111.802 438.241C112.058 439.025 112.429 439.707 112.915 440.288C113.415 440.856 114.009 441.302 114.697 441.626C115.399 441.937 116.196 442.093 117.087 442.093C118.208 442.093 119.22 441.876 120.125 441.444C121.043 440.998 121.839 440.342 122.514 439.477L125.208 442.275C124.749 442.951 124.128 443.6 123.345 444.221C122.575 444.843 121.643 445.35 120.55 445.742C119.456 446.12 118.194 446.31 116.763 446.31Z" fill="black"/>
<path d="M135.374 443.471L141.246 423.968H146.977L138.188 449.229C137.986 449.77 137.723 450.358 137.399 450.993C137.088 451.628 136.67 452.229 136.143 452.797C135.617 453.378 134.955 453.851 134.158 454.216C133.375 454.581 132.424 454.764 131.303 454.764C130.817 454.764 130.385 454.73 130.007 454.662C129.629 454.595 129.231 454.507 128.812 454.399V450.385C128.947 450.398 129.103 450.405 129.278 450.405C129.467 450.418 129.629 450.425 129.764 450.425C130.547 450.425 131.195 450.33 131.708 450.141C132.221 449.966 132.633 449.675 132.943 449.27C133.267 448.878 133.537 448.364 133.753 447.729L135.374 443.471ZM132.478 423.968L137.439 440.126L138.31 445.782L134.624 446.451L126.706 423.968H132.478Z" fill="black"/>
<path d="M148.294 435.159V434.733C148.294 433.125 148.523 431.645 148.982 430.293C149.441 428.928 150.109 427.746 150.987 426.745C151.864 425.745 152.938 424.968 154.207 424.414C155.476 423.846 156.92 423.562 158.541 423.562C160.188 423.562 161.646 423.846 162.915 424.414C164.197 424.968 165.277 425.745 166.155 426.745C167.032 427.746 167.701 428.928 168.16 430.293C168.619 431.645 168.848 433.125 168.848 434.733V435.159C168.848 436.754 168.619 438.234 168.16 439.599C167.701 440.951 167.032 442.133 166.155 443.147C165.277 444.147 164.204 444.924 162.935 445.478C161.666 446.032 160.215 446.31 158.581 446.31C156.961 446.31 155.51 446.032 154.227 445.478C152.945 444.924 151.864 444.147 150.987 443.147C150.109 442.133 149.441 440.951 148.982 439.599C148.523 438.234 148.294 436.754 148.294 435.159ZM153.64 434.733V435.159C153.64 436.119 153.734 437.017 153.923 437.855C154.112 438.693 154.403 439.43 154.794 440.065C155.186 440.7 155.692 441.201 156.313 441.565C156.947 441.917 157.703 442.093 158.581 442.093C159.445 442.093 160.188 441.917 160.809 441.565C161.43 441.201 161.936 440.7 162.327 440.065C162.732 439.43 163.029 438.693 163.218 437.855C163.407 437.017 163.502 436.119 163.502 435.159V434.733C163.502 433.787 163.407 432.902 163.218 432.077C163.029 431.239 162.732 430.503 162.327 429.868C161.936 429.219 161.423 428.712 160.788 428.347C160.167 427.969 159.418 427.779 158.541 427.779C157.676 427.779 156.934 427.969 156.313 428.347C155.692 428.712 155.186 429.219 154.794 429.868C154.403 430.503 154.112 431.239 153.923 432.077C153.734 432.902 153.64 433.787 153.64 434.733Z" fill="black"/>
<path d="M177.981 428.651V445.904H172.635V423.968H177.657L177.981 428.651ZM177.131 434.145H175.551C175.565 432.55 175.781 431.104 176.199 429.807C176.618 428.509 177.205 427.394 177.961 426.462C178.731 425.529 179.642 424.813 180.695 424.313C181.748 423.812 182.923 423.562 184.219 423.562C185.272 423.562 186.223 423.711 187.074 424.008C187.925 424.306 188.654 424.779 189.261 425.428C189.882 426.076 190.355 426.928 190.679 427.982C191.016 429.023 191.185 430.307 191.185 431.834V445.904H185.798V431.794C185.798 430.793 185.65 430.003 185.353 429.422C185.069 428.84 184.651 428.428 184.097 428.185C183.557 427.942 182.889 427.82 182.092 427.82C181.269 427.82 180.546 427.989 179.925 428.327C179.318 428.651 178.805 429.104 178.386 429.685C177.981 430.266 177.671 430.935 177.455 431.692C177.239 432.449 177.131 433.267 177.131 434.145Z" fill="black"/>
<path d="M209.046 441.241V414.764H214.433V445.904H209.573L209.046 441.241ZM194.972 435.2V434.774C194.972 433.098 195.161 431.577 195.539 430.212C195.93 428.834 196.497 427.651 197.24 426.664C197.982 425.678 198.88 424.914 199.933 424.373C201 423.833 202.208 423.562 203.558 423.562C204.868 423.562 206.009 423.826 206.981 424.353C207.966 424.88 208.803 425.63 209.492 426.604C210.194 427.577 210.754 428.732 211.173 430.07C211.591 431.395 211.895 432.855 212.084 434.449V435.605C211.895 437.159 211.591 438.585 211.173 439.883C210.754 441.18 210.194 442.316 209.492 443.289C208.803 444.248 207.966 444.992 206.981 445.519C205.995 446.046 204.841 446.31 203.518 446.31C202.181 446.31 200.98 446.032 199.913 445.478C198.86 444.924 197.962 444.147 197.22 443.147C196.491 442.147 195.93 440.971 195.539 439.619C195.161 438.268 194.972 436.794 194.972 435.2ZM200.338 434.774V435.2C200.338 436.146 200.419 437.031 200.581 437.855C200.743 438.68 201.007 439.41 201.371 440.045C201.736 440.667 202.201 441.153 202.768 441.505C203.349 441.856 204.051 442.032 204.874 442.032C205.928 442.032 206.792 441.802 207.467 441.342C208.155 440.869 208.688 440.227 209.066 439.416C209.444 438.592 209.687 437.666 209.795 436.639V433.456C209.741 432.645 209.6 431.895 209.37 431.206C209.154 430.516 208.844 429.922 208.439 429.422C208.047 428.921 207.561 428.53 206.981 428.246C206.4 427.962 205.712 427.82 204.915 427.82C204.091 427.82 203.389 428.002 202.809 428.367C202.228 428.719 201.756 429.212 201.391 429.847C201.027 430.483 200.757 431.219 200.581 432.057C200.419 432.895 200.338 433.801 200.338 434.774Z" fill="black"/>
<path d="M238.815 445.904H232.456L232.497 441.525H238.815C240.529 441.525 241.967 441.147 243.128 440.39C244.289 439.619 245.167 438.518 245.761 437.085C246.355 435.639 246.652 433.909 246.652 431.895V430.374C246.652 428.82 246.483 427.448 246.146 426.259C245.808 425.069 245.309 424.069 244.647 423.258C243.999 422.447 243.196 421.832 242.237 421.413C241.279 420.994 240.178 420.785 238.936 420.785H232.335V416.386H238.936C240.908 416.386 242.703 416.717 244.323 417.379C245.957 418.041 247.368 418.994 248.556 420.238C249.757 421.468 250.675 422.941 251.31 424.657C251.958 426.374 252.282 428.293 252.282 430.415V431.895C252.282 434.003 251.958 435.923 251.31 437.653C250.675 439.369 249.757 440.842 248.556 442.072C247.368 443.302 245.95 444.248 244.303 444.911C242.656 445.573 240.827 445.904 238.815 445.904ZM235.575 416.386V445.904H230.006V416.386H235.575Z" fill="black"/>
<path d="M266.457 446.31C264.797 446.31 263.305 446.039 261.982 445.499C260.659 444.958 259.532 444.208 258.6 443.248C257.682 442.275 256.973 441.147 256.474 439.863C255.988 438.565 255.745 437.173 255.745 435.686V434.875C255.745 433.186 255.988 431.652 256.474 430.273C256.96 428.881 257.648 427.685 258.539 426.685C259.43 425.684 260.497 424.914 261.739 424.373C262.981 423.833 264.351 423.562 265.85 423.562C267.402 423.562 268.773 423.826 269.961 424.353C271.149 424.867 272.141 425.597 272.938 426.543C273.734 427.489 274.335 428.624 274.74 429.949C275.145 431.26 275.347 432.713 275.347 434.308V436.558H258.175V432.868H270.082V432.463C270.055 431.611 269.893 430.834 269.596 430.131C269.299 429.415 268.84 428.847 268.219 428.428C267.598 427.996 266.795 427.779 265.809 427.779C265.013 427.779 264.318 427.955 263.723 428.306C263.143 428.644 262.657 429.131 262.265 429.766C261.887 430.388 261.604 431.131 261.415 431.996C261.226 432.861 261.131 433.821 261.131 434.875V435.686C261.131 436.605 261.253 437.457 261.496 438.241C261.752 439.025 262.124 439.707 262.61 440.288C263.109 440.856 263.703 441.302 264.392 441.626C265.094 441.937 265.89 442.093 266.781 442.093C267.902 442.093 268.914 441.876 269.819 441.444C270.737 440.998 271.534 440.342 272.209 439.477L274.902 442.275C274.443 442.951 273.822 443.6 273.039 444.221C272.269 444.843 271.338 445.35 270.244 445.742C269.151 446.12 267.888 446.31 266.457 446.31Z" fill="black"/>
<path d="M290.981 439.903C290.981 439.444 290.86 439.031 290.617 438.666C290.374 438.301 289.915 437.97 289.24 437.673C288.578 437.362 287.606 437.071 286.323 436.801C285.189 436.558 284.143 436.254 283.185 435.889C282.226 435.524 281.402 435.085 280.714 434.571C280.025 434.044 279.485 433.429 279.094 432.726C278.716 432.01 278.527 431.185 278.527 430.253C278.527 429.347 278.723 428.496 279.114 427.698C279.506 426.887 280.073 426.178 280.815 425.57C281.558 424.948 282.462 424.461 283.529 424.11C284.595 423.745 285.797 423.562 287.133 423.562C288.997 423.562 290.596 423.867 291.933 424.475C293.283 425.083 294.316 425.921 295.031 426.989C295.747 428.043 296.105 429.232 296.105 430.557H290.758C290.758 429.976 290.623 429.449 290.353 428.976C290.097 428.502 289.699 428.124 289.159 427.84C288.619 427.543 287.937 427.394 287.113 427.394C286.371 427.394 285.743 427.516 285.23 427.759C284.73 428.002 284.352 428.32 284.096 428.712C283.839 429.104 283.711 429.536 283.711 430.009C283.711 430.361 283.779 430.679 283.914 430.962C284.062 431.233 284.298 431.483 284.622 431.712C284.946 431.942 285.385 432.152 285.939 432.341C286.506 432.53 287.201 432.713 288.025 432.888C289.658 433.213 291.082 433.645 292.297 434.186C293.526 434.713 294.485 435.416 295.173 436.294C295.862 437.173 296.206 438.295 296.206 439.66C296.206 440.633 295.997 441.525 295.578 442.336C295.16 443.133 294.552 443.829 293.755 444.424C292.959 445.019 292.007 445.485 290.9 445.823C289.793 446.147 288.544 446.31 287.154 446.31C285.142 446.31 283.441 445.951 282.051 445.235C280.66 444.505 279.607 443.586 278.891 442.478C278.176 441.356 277.818 440.194 277.818 438.991H282.942C282.982 439.842 283.212 440.525 283.63 441.038C284.049 441.552 284.575 441.924 285.21 442.153C285.858 442.37 286.539 442.478 287.255 442.478C288.065 442.478 288.747 442.37 289.3 442.153C289.854 441.924 290.272 441.62 290.556 441.241C290.839 440.849 290.981 440.403 290.981 439.903Z" fill="black"/>
<path d="M305.947 423.968V445.904H300.58V423.968H305.947ZM300.216 418.23C300.216 417.433 300.486 416.771 301.026 416.244C301.579 415.717 302.322 415.453 303.253 415.453C304.185 415.453 304.92 415.717 305.46 416.244C306.014 416.771 306.291 417.433 306.291 418.23C306.291 419.014 306.014 419.67 305.46 420.197C304.92 420.724 304.185 420.988 303.253 420.988C302.322 420.988 301.579 420.724 301.026 420.197C300.486 419.67 300.216 419.014 300.216 418.23Z" fill="black"/>
<path d="M324.982 423.968H329.843V445.235C329.843 447.222 329.411 448.905 328.546 450.283C327.696 451.675 326.501 452.73 324.962 453.446C323.423 454.176 321.634 454.541 319.596 454.541C318.718 454.541 317.766 454.419 316.74 454.176C315.728 453.932 314.749 453.547 313.804 453.02C312.872 452.507 312.096 451.838 311.475 451.013L313.885 447.85C314.614 448.702 315.437 449.344 316.355 449.776C317.273 450.222 318.266 450.445 319.332 450.445C320.412 450.445 321.33 450.243 322.086 449.837C322.856 449.445 323.443 448.864 323.848 448.094C324.267 447.337 324.476 446.404 324.476 445.296V428.976L324.982 423.968ZM310.179 435.2V434.774C310.179 433.098 310.381 431.577 310.786 430.212C311.191 428.834 311.772 427.651 312.528 426.664C313.298 425.678 314.222 424.914 315.302 424.373C316.396 423.833 317.625 423.562 318.988 423.562C320.433 423.562 321.648 423.826 322.633 424.353C323.632 424.88 324.456 425.63 325.104 426.604C325.765 427.577 326.278 428.732 326.643 430.07C327.021 431.395 327.311 432.855 327.514 434.449V435.605C327.325 437.159 327.021 438.585 326.602 439.883C326.197 441.18 325.657 442.316 324.982 443.289C324.307 444.248 323.47 444.992 322.471 445.519C321.472 446.046 320.298 446.31 318.948 446.31C317.598 446.31 316.382 446.032 315.302 445.478C314.222 444.924 313.298 444.147 312.528 443.147C311.772 442.147 311.191 440.971 310.786 439.619C310.381 438.268 310.179 436.794 310.179 435.2ZM315.525 434.774V435.2C315.525 436.146 315.62 437.031 315.809 437.855C315.998 438.68 316.288 439.41 316.679 440.045C317.071 440.667 317.564 441.153 318.158 441.505C318.752 441.856 319.461 442.032 320.284 442.032C321.391 442.032 322.296 441.802 322.998 441.342C323.713 440.869 324.253 440.227 324.618 439.416C324.996 438.592 325.239 437.666 325.347 436.639V433.456C325.279 432.645 325.131 431.895 324.901 431.206C324.685 430.516 324.382 429.922 323.99 429.422C323.599 428.921 323.099 428.53 322.491 428.246C321.884 427.962 321.162 427.82 320.325 427.82C319.515 427.82 318.806 428.002 318.198 428.367C317.591 428.719 317.091 429.212 316.7 429.847C316.308 430.483 316.011 431.219 315.809 432.057C315.62 432.895 315.525 433.801 315.525 434.774Z" fill="black"/>
<path d="M339.907 428.651V445.904H334.561V423.968H339.583L339.907 428.651ZM339.057 434.145H337.477C337.491 432.55 337.707 431.104 338.125 429.807C338.544 428.509 339.131 427.394 339.887 426.462C340.656 425.529 341.568 424.813 342.621 424.313C343.674 423.812 344.848 423.562 346.144 423.562C347.198 423.562 348.149 423.711 349 424.008C349.85 424.306 350.579 424.779 351.187 425.428C351.808 426.076 352.28 426.928 352.604 427.982C352.942 429.023 353.111 430.307 353.111 431.834V445.904H347.724V431.794C347.724 430.793 347.576 430.003 347.279 429.422C346.995 428.84 346.576 428.428 346.023 428.185C345.483 427.942 344.815 427.82 344.018 427.82C343.195 427.82 342.472 427.989 341.851 428.327C341.244 428.651 340.731 429.104 340.312 429.685C339.907 430.266 339.597 430.935 339.381 431.692C339.165 432.449 339.057 433.267 339.057 434.145Z" fill="black"/>
<path d="M383.993 438.241C383.993 437.673 383.906 437.166 383.73 436.72C383.568 436.261 383.264 435.848 382.819 435.483C382.387 435.105 381.772 434.74 380.976 434.389C380.193 434.024 379.18 433.645 377.938 433.253C376.561 432.821 375.279 432.334 374.091 431.794C372.903 431.253 371.856 430.624 370.952 429.908C370.061 429.192 369.365 428.367 368.866 427.435C368.366 426.489 368.117 425.394 368.117 424.15C368.117 422.934 368.373 421.826 368.886 420.826C369.413 419.825 370.155 418.967 371.114 418.251C372.072 417.521 373.2 416.96 374.496 416.568C375.805 416.176 377.25 415.98 378.829 415.98C381.016 415.98 382.907 416.379 384.5 417.176C386.106 417.974 387.348 419.055 388.226 420.42C389.103 421.785 389.542 423.319 389.542 425.022H383.993C383.993 424.103 383.798 423.292 383.406 422.589C383.028 421.886 382.447 421.332 381.664 420.927C380.895 420.521 379.923 420.319 378.748 420.319C377.614 420.319 376.669 420.488 375.913 420.826C375.171 421.163 374.61 421.623 374.232 422.204C373.868 422.785 373.686 423.434 373.686 424.15C373.686 424.691 373.814 425.178 374.07 425.61C374.327 426.029 374.712 426.428 375.225 426.806C375.738 427.171 376.372 427.516 377.128 427.84C377.898 428.151 378.789 428.462 379.801 428.773C381.421 429.259 382.839 429.8 384.054 430.395C385.283 430.989 386.302 431.665 387.112 432.422C387.935 433.179 388.55 434.03 388.955 434.977C389.373 435.923 389.583 436.997 389.583 438.2C389.583 439.471 389.333 440.606 388.833 441.606C388.334 442.606 387.618 443.458 386.687 444.161C385.755 444.863 384.635 445.397 383.325 445.762C382.029 446.127 380.578 446.31 378.971 446.31C377.54 446.31 376.122 446.12 374.718 445.742C373.328 445.35 372.066 444.769 370.932 443.998C369.797 443.214 368.893 442.228 368.218 441.038C367.543 439.835 367.205 438.43 367.205 436.821H372.795C372.795 437.754 372.943 438.551 373.24 439.214C373.551 439.863 373.983 440.396 374.536 440.815C375.103 441.221 375.765 441.518 376.521 441.707C377.277 441.897 378.094 441.991 378.971 441.991C380.105 441.991 381.037 441.836 381.766 441.525C382.508 441.201 383.062 440.755 383.426 440.187C383.804 439.619 383.993 438.97 383.993 438.241Z" fill="black"/>
<path d="M399.89 443.471L405.763 423.968H411.494L402.705 449.229C402.503 449.77 402.239 450.358 401.915 450.993C401.605 451.628 401.186 452.229 400.66 452.797C400.133 453.378 399.472 453.851 398.675 454.216C397.892 454.581 396.94 454.764 395.82 454.764C395.334 454.764 394.902 454.73 394.524 454.662C394.146 454.595 393.747 454.507 393.329 454.399V450.385C393.464 450.398 393.619 450.405 393.795 450.405C393.984 450.418 394.146 450.425 394.281 450.425C395.064 450.425 395.712 450.33 396.225 450.141C396.738 449.966 397.15 449.675 397.46 449.27C397.784 448.878 398.054 448.364 398.27 447.729L399.89 443.471ZM396.994 423.968L401.956 440.126L402.827 445.782L399.141 446.451L391.223 423.968H396.994Z" fill="black"/>
<path d="M426.135 439.903C426.135 439.444 426.014 439.031 425.771 438.666C425.528 438.301 425.069 437.97 424.394 437.673C423.732 437.362 422.76 437.071 421.478 436.801C420.344 436.558 419.297 436.254 418.339 435.889C417.38 435.524 416.557 435.085 415.868 434.571C415.18 434.044 414.64 433.429 414.248 432.726C413.87 432.01 413.681 431.185 413.681 430.253C413.681 429.347 413.877 428.496 414.268 427.698C414.66 426.887 415.227 426.178 415.969 425.57C416.712 424.948 417.616 424.461 418.683 424.11C419.75 423.745 420.951 423.562 422.288 423.562C424.151 423.562 425.751 423.867 427.087 424.475C428.437 425.083 429.47 425.921 430.186 426.989C430.901 428.043 431.259 429.232 431.259 430.557H425.913C425.913 429.976 425.778 429.449 425.508 428.976C425.251 428.502 424.853 428.124 424.313 427.84C423.773 427.543 423.091 427.394 422.267 427.394C421.525 427.394 420.897 427.516 420.384 427.759C419.885 428.002 419.507 428.32 419.25 428.712C418.994 429.104 418.865 429.536 418.865 430.009C418.865 430.361 418.933 430.679 419.068 430.962C419.216 431.233 419.453 431.483 419.777 431.712C420.101 431.942 420.539 432.152 421.093 432.341C421.66 432.53 422.355 432.713 423.179 432.888C424.812 433.213 426.237 433.645 427.452 434.186C428.68 434.713 429.639 435.416 430.327 436.294C431.016 437.173 431.36 438.295 431.36 439.66C431.36 440.633 431.151 441.525 430.732 442.336C430.314 443.133 429.706 443.829 428.91 444.424C428.113 445.019 427.161 445.485 426.054 445.823C424.947 446.147 423.698 446.31 422.308 446.31C420.296 446.31 418.595 445.951 417.205 445.235C415.814 444.505 414.761 443.586 414.046 442.478C413.33 441.356 412.972 440.194 412.972 438.991H418.096C418.136 439.842 418.366 440.525 418.784 441.038C419.203 441.552 419.729 441.924 420.364 442.153C421.012 442.37 421.694 442.478 422.409 442.478C423.219 442.478 423.901 442.37 424.455 442.153C425.008 441.924 425.427 441.62 425.71 441.241C425.994 440.849 426.135 440.403 426.135 439.903Z" fill="black"/>
<path d="M445.799 423.968V427.82H433.243V423.968H445.799ZM436.605 418.575H441.972V439.579C441.972 440.227 442.059 440.728 442.235 441.079C442.41 441.43 442.674 441.667 443.025 441.789C443.376 441.91 443.794 441.971 444.28 441.971C444.631 441.971 444.955 441.951 445.252 441.91C445.549 441.87 445.799 441.829 446.001 441.789L446.022 445.803C445.576 445.951 445.07 446.073 444.503 446.168C443.949 446.262 443.322 446.31 442.62 446.31C441.418 446.31 440.365 446.107 439.46 445.701C438.556 445.282 437.854 444.613 437.354 443.694C436.855 442.762 436.605 441.532 436.605 440.004V418.575Z" fill="black"/>
<path d="M459.205 446.31C457.544 446.31 456.053 446.039 454.73 445.499C453.406 444.958 452.279 444.208 451.348 443.248C450.43 442.275 449.721 441.147 449.221 439.863C448.735 438.565 448.492 437.173 448.492 435.686V434.875C448.492 433.186 448.735 431.652 449.221 430.273C449.707 428.881 450.396 427.685 451.287 426.685C452.178 425.684 453.244 424.914 454.487 424.373C455.729 423.833 457.099 423.562 458.597 423.562C460.15 423.562 461.52 423.826 462.708 424.353C463.896 424.867 464.889 425.597 465.685 426.543C466.482 427.489 467.083 428.624 467.488 429.949C467.893 431.26 468.095 432.713 468.095 434.308V436.558H450.922V432.868H462.83V432.463C462.803 431.611 462.641 430.834 462.344 430.131C462.047 429.415 461.588 428.847 460.967 428.428C460.346 427.996 459.543 427.779 458.557 427.779C457.76 427.779 457.065 427.955 456.471 428.306C455.891 428.644 455.405 429.131 455.013 429.766C454.635 430.388 454.352 431.131 454.163 431.996C453.974 432.861 453.879 433.821 453.879 434.875V435.686C453.879 436.605 454.001 437.457 454.244 438.241C454.5 439.025 454.871 439.707 455.357 440.288C455.857 440.856 456.451 441.302 457.139 441.626C457.841 441.937 458.638 442.093 459.529 442.093C460.65 442.093 461.662 441.876 462.567 441.444C463.485 440.998 464.281 440.342 464.956 439.477L467.65 442.275C467.191 442.951 466.57 443.6 465.787 444.221C465.017 444.843 464.085 445.35 462.992 445.742C461.898 446.12 460.636 446.31 459.205 446.31Z" fill="black"/>
<path d="M477.005 428.469V445.904H471.659V423.968H476.702L477.005 428.469ZM476.216 434.145H474.575C474.575 432.618 474.758 431.212 475.122 429.928C475.5 428.644 476.054 427.529 476.783 426.583C477.512 425.624 478.41 424.88 479.476 424.353C480.556 423.826 481.805 423.562 483.223 423.562C484.208 423.562 485.113 423.711 485.936 424.008C486.76 424.292 487.468 424.745 488.062 425.367C488.67 425.975 489.136 426.772 489.46 427.759C489.784 428.732 489.946 429.901 489.946 431.266V445.904H484.6V431.814C484.6 430.787 484.451 429.982 484.154 429.401C483.871 428.82 483.459 428.415 482.919 428.185C482.379 427.942 481.731 427.82 480.975 427.82C480.138 427.82 479.415 427.989 478.808 428.327C478.214 428.651 477.721 429.104 477.33 429.685C476.951 430.266 476.668 430.935 476.479 431.692C476.303 432.449 476.216 433.267 476.216 434.145ZM489.541 433.152L487.333 433.557C487.347 432.179 487.536 430.888 487.9 429.685C488.265 428.469 488.798 427.408 489.5 426.502C490.216 425.583 491.1 424.867 492.153 424.353C493.22 423.826 494.448 423.562 495.839 423.562C496.919 423.562 497.891 423.718 498.755 424.029C499.632 424.326 500.382 424.806 501.003 425.468C501.624 426.117 502.096 426.962 502.42 428.002C502.758 429.043 502.927 430.314 502.927 431.814V445.904H497.54V431.794C497.54 430.726 497.391 429.908 497.094 429.34C496.811 428.773 496.399 428.381 495.859 428.165C495.319 427.935 494.684 427.82 493.955 427.82C493.213 427.82 492.565 427.962 492.011 428.246C491.471 428.516 491.012 428.894 490.634 429.381C490.27 429.868 489.993 430.435 489.804 431.084C489.629 431.719 489.541 432.409 489.541 433.152Z" fill="black"/>
<path d="M519.775 439.903C519.775 439.444 519.654 439.031 519.411 438.666C519.168 438.301 518.709 437.97 518.034 437.673C517.372 437.362 516.4 437.071 515.118 436.801C513.984 436.558 512.937 436.254 511.979 435.889C511.02 435.524 510.197 435.085 509.508 434.571C508.82 434.044 508.28 433.429 507.888 432.726C507.51 432.01 507.321 431.185 507.321 430.253C507.321 429.347 507.517 428.496 507.908 427.698C508.3 426.887 508.867 426.178 509.609 425.57C510.352 424.948 511.256 424.461 512.323 424.11C513.39 423.745 514.591 423.562 515.928 423.562C517.791 423.562 519.391 423.867 520.727 424.475C522.077 425.083 523.11 425.921 523.825 426.989C524.541 428.043 524.899 429.232 524.899 430.557H519.553C519.553 429.976 519.418 429.449 519.148 428.976C518.891 428.502 518.493 428.124 517.953 427.84C517.413 427.543 516.731 427.394 515.907 427.394C515.165 427.394 514.537 427.516 514.024 427.759C513.525 428.002 513.147 428.32 512.89 428.712C512.633 429.104 512.505 429.536 512.505 430.009C512.505 430.361 512.573 430.679 512.708 430.962C512.856 431.233 513.093 431.483 513.417 431.712C513.741 431.942 514.179 432.152 514.733 432.341C515.3 432.53 515.995 432.713 516.819 432.888C518.452 433.213 519.877 433.645 521.092 434.186C522.32 434.713 523.279 435.416 523.967 436.294C524.656 437.173 525 438.295 525 439.66C525 440.633 524.791 441.525 524.372 442.336C523.954 443.133 523.346 443.829 522.55 444.424C521.753 445.019 520.801 445.485 519.694 445.823C518.587 446.147 517.338 446.31 515.948 446.31C513.936 446.31 512.235 445.951 510.845 445.235C509.454 444.505 508.401 443.586 507.686 442.478C506.97 441.356 506.612 440.194 506.612 438.991H511.736C511.776 439.842 512.006 440.525 512.424 441.038C512.843 441.552 513.369 441.924 514.004 442.153C514.652 442.37 515.334 442.478 516.049 442.478C516.859 442.478 517.541 442.37 518.094 442.153C518.648 441.924 519.067 441.62 519.35 441.241C519.634 440.849 519.775 440.403 519.775 439.903Z" fill="black"/>
<path d="M123.169 314.563C123.169 312.937 122.918 311.484 122.414 310.206C121.949 308.889 121.078 307.707 119.799 306.661C118.56 305.576 116.797 304.531 114.512 303.523C112.265 302.478 109.36 301.393 105.796 300.27C101.845 299.03 98.1647 297.635 94.7559 296.086C91.347 294.536 88.3449 292.735 85.7495 290.682C83.1929 288.629 81.1979 286.266 79.7646 283.593C78.3314 280.882 77.6147 277.744 77.6147 274.18C77.6147 270.694 78.3507 267.517 79.8228 264.651C81.3335 261.784 83.464 259.325 86.2144 257.271C88.9647 255.18 92.1992 253.572 95.918 252.449C99.6755 251.325 103.82 250.764 108.353 250.764C114.628 250.764 120.051 251.906 124.622 254.192C129.232 256.477 132.796 259.576 135.313 263.489C137.831 267.401 139.09 271.798 139.09 276.679H123.169C123.169 274.045 122.608 271.72 121.484 269.706C120.4 267.692 118.734 266.104 116.487 264.941C114.279 263.779 111.49 263.198 108.12 263.198C104.866 263.198 102.155 263.682 99.9854 264.651C97.8548 265.619 96.2472 266.936 95.1626 268.602C94.1167 270.268 93.5938 272.127 93.5938 274.18C93.5938 275.73 93.9618 277.124 94.6978 278.364C95.4338 279.565 96.5378 280.707 98.0098 281.792C99.4818 282.838 101.302 283.826 103.472 284.755C105.68 285.646 108.236 286.537 111.142 287.428C115.79 288.823 119.857 290.372 123.344 292.077C126.869 293.781 129.793 295.718 132.118 297.887C134.481 300.056 136.243 302.497 137.405 305.208C138.606 307.92 139.207 311 139.207 314.447C139.207 318.089 138.49 321.342 137.057 324.209C135.623 327.076 133.57 329.516 130.897 331.53C128.225 333.545 125.009 335.075 121.252 336.121C117.533 337.167 113.369 337.689 108.759 337.689C104.653 337.689 100.586 337.147 96.5571 336.062C92.5672 334.939 88.9453 333.273 85.6914 331.065C82.4375 328.819 79.8421 325.991 77.9053 322.582C75.9684 319.134 75 315.106 75 310.496H91.0371C91.0371 313.169 91.4632 315.454 92.3154 317.353C93.2064 319.212 94.446 320.742 96.0342 321.943C97.6611 323.105 99.5592 323.957 101.729 324.5C103.898 325.042 106.241 325.313 108.759 325.313C112.013 325.313 114.686 324.868 116.778 323.977C118.908 323.047 120.497 321.769 121.542 320.142C122.627 318.515 123.169 316.655 123.169 314.563Z" fill="black"/>
<path d="M161.403 251.926L179.997 291.379L198.707 251.926H216.254L188.131 305.557V336.527H171.92V305.557L143.739 251.926H161.403Z" fill="black"/>
<path d="M268.084 314.563C268.084 312.937 267.833 311.484 267.329 310.206C266.864 308.889 265.993 307.707 264.714 306.661C263.475 305.576 261.712 304.531 259.427 303.523C257.18 302.478 254.275 301.393 250.711 300.27C246.76 299.03 243.08 297.635 239.671 296.086C236.262 294.536 233.26 292.735 230.665 290.682C228.108 288.629 226.113 286.266 224.68 283.593C223.246 280.882 222.53 277.744 222.53 274.18C222.53 270.694 223.266 267.517 224.738 264.651C226.249 261.784 228.379 259.325 231.129 257.271C233.88 255.18 237.114 253.572 240.833 252.449C244.59 251.325 248.735 250.764 253.268 250.764C259.543 250.764 264.966 251.906 269.537 254.192C274.147 256.477 277.711 259.576 280.229 263.489C282.746 267.401 284.005 271.798 284.005 276.679H268.084C268.084 274.045 267.523 271.72 266.399 269.706C265.315 267.692 263.649 266.104 261.402 264.941C259.194 263.779 256.405 263.198 253.035 263.198C249.781 263.198 247.07 263.682 244.9 264.651C242.77 265.619 241.162 266.936 240.078 268.602C239.032 270.268 238.509 272.127 238.509 274.18C238.509 275.73 238.877 277.124 239.613 278.364C240.349 279.565 241.453 280.707 242.925 281.792C244.397 282.838 246.217 283.826 248.387 284.755C250.595 285.646 253.151 286.537 256.057 287.428C260.705 288.823 264.772 290.372 268.259 292.077C271.784 293.781 274.708 295.718 277.033 297.887C279.396 300.056 281.158 302.497 282.32 305.208C283.521 307.92 284.122 311 284.122 314.447C284.122 318.089 283.405 321.342 281.972 324.209C280.538 327.076 278.485 329.516 275.812 331.53C273.14 333.545 269.924 335.075 266.167 336.121C262.448 337.167 258.284 337.689 253.674 337.689C249.568 337.689 245.501 337.147 241.472 336.062C237.482 334.939 233.86 333.273 230.606 331.065C227.353 328.819 224.757 325.991 222.82 322.582C220.883 319.134 219.915 315.106 219.915 310.496H235.952C235.952 313.169 236.378 315.454 237.23 317.353C238.121 319.212 239.361 320.742 240.949 321.943C242.576 323.105 244.474 323.957 246.644 324.5C248.813 325.042 251.156 325.313 253.674 325.313C256.928 325.313 259.601 324.868 261.693 323.977C263.823 323.047 265.412 321.769 266.458 320.142C267.542 318.515 268.084 316.655 268.084 314.563Z" fill="black"/>
<path d="M332.756 251.926V336.527H316.835V251.926H332.756ZM359.02 251.926V264.535H290.862V251.926H359.02Z" fill="black"/>
<path d="M425.725 323.977V336.527H380.751V323.977H425.725ZM385.632 251.926V336.527H369.653V251.926H385.632ZM419.856 286.847V299.107H380.751V286.847H419.856ZM425.55 251.926V264.535H380.751V251.926H425.55Z" fill="black"/>
<path d="M443.795 251.926H457.625L480.75 315.609L503.818 251.926H517.706L486.271 336.527H475.172L443.795 251.926ZM436.823 251.926H450.361L452.802 310.438V336.527H436.823V251.926ZM511.082 251.926H524.678V336.527H508.699V310.438L511.082 251.926Z" fill="black"/>
<path d="M128.142 146.162H144.121V202.35C144.121 208.819 142.727 214.262 139.938 218.678C137.148 223.055 133.352 226.367 128.549 228.614C123.745 230.822 118.284 231.926 112.163 231.926C105.965 231.926 100.445 230.822 95.603 228.614C90.7609 226.367 86.9647 223.055 84.2144 218.678C81.464 214.262 80.0889 208.819 80.0889 202.35V146.162H96.0679V202.35C96.0679 206.301 96.7264 209.536 98.0435 212.054C99.3605 214.533 101.22 216.373 103.622 217.574C106.023 218.775 108.87 219.375 112.163 219.375C115.494 219.375 118.342 218.775 120.705 217.574C123.106 216.373 124.946 214.533 126.225 212.054C127.503 209.536 128.142 206.301 128.142 202.35V146.162Z" fill="black"/>
<path d="M203.563 208.8C203.563 207.173 203.311 205.72 202.808 204.442C202.343 203.125 201.471 201.943 200.193 200.897C198.953 199.813 197.191 198.767 194.905 197.76C192.659 196.714 189.753 195.629 186.189 194.506C182.238 193.266 178.558 191.872 175.149 190.322C171.741 188.773 168.738 186.972 166.143 184.918C163.586 182.865 161.591 180.502 160.158 177.83C158.725 175.118 158.008 171.98 158.008 168.417C158.008 164.93 158.744 161.754 160.216 158.887C161.727 156.021 163.858 153.561 166.608 151.508C169.358 149.416 172.593 147.808 176.312 146.685C180.069 145.562 184.214 145 188.746 145C195.021 145 200.445 146.143 205.016 148.428C209.625 150.714 213.189 153.813 215.707 157.725C218.225 161.638 219.484 166.034 219.484 170.915H203.563C203.563 168.281 203.001 165.957 201.878 163.942C200.793 161.928 199.128 160.34 196.881 159.178C194.673 158.016 191.884 157.435 188.514 157.435C185.26 157.435 182.548 157.919 180.379 158.887C178.248 159.856 176.641 161.173 175.556 162.838C174.51 164.504 173.987 166.363 173.987 168.417C173.987 169.966 174.355 171.361 175.091 172.6C175.827 173.801 176.931 174.944 178.403 176.028C179.875 177.074 181.696 178.062 183.865 178.992C186.073 179.883 188.63 180.774 191.535 181.665C196.184 183.059 200.251 184.609 203.737 186.313C207.262 188.017 210.187 189.954 212.511 192.124C214.874 194.293 216.637 196.733 217.799 199.445C219 202.156 219.6 205.236 219.6 208.684C219.6 212.325 218.883 215.579 217.45 218.445C216.017 221.312 213.964 223.752 211.291 225.767C208.618 227.781 205.403 229.311 201.646 230.357C197.927 231.403 193.763 231.926 189.153 231.926C185.047 231.926 180.979 231.383 176.951 230.299C172.961 229.175 169.339 227.51 166.085 225.302C162.831 223.055 160.236 220.227 158.299 216.818C156.362 213.371 155.394 209.342 155.394 204.732H171.431C171.431 207.405 171.857 209.691 172.709 211.589C173.6 213.448 174.84 214.978 176.428 216.179C178.055 217.341 179.953 218.194 182.122 218.736C184.291 219.278 186.635 219.549 189.153 219.549C192.407 219.549 195.08 219.104 197.171 218.213C199.302 217.283 200.89 216.005 201.936 214.378C203.021 212.751 203.563 210.892 203.563 208.8Z" fill="black"/>
<path d="M287.99 218.213V230.764H243.017V218.213H287.99ZM247.897 146.162V230.764H231.918V146.162H247.897ZM282.122 181.083V193.344H243.017V181.083H282.122ZM287.816 146.162V158.771H243.017V146.162H287.816Z" fill="black"/>
<path d="M299.088 146.162H329.826C336.257 146.162 341.777 147.131 346.386 149.067C350.996 151.004 354.54 153.871 357.02 157.667C359.499 161.463 360.738 166.131 360.738 171.67C360.738 176.048 359.964 179.844 358.414 183.059C356.865 186.274 354.676 188.966 351.848 191.136C349.059 193.305 345.766 195.009 341.97 196.249L336.973 198.806H309.838L309.722 186.197H330C333.293 186.197 336.024 185.616 338.193 184.454C340.363 183.292 341.99 181.684 343.074 179.631C344.198 177.578 344.759 175.234 344.759 172.6C344.759 169.772 344.217 167.332 343.132 165.279C342.048 163.187 340.401 161.579 338.193 160.456C335.985 159.333 333.196 158.771 329.826 158.771H315.067V230.764H299.088V146.162ZM346.851 230.764L327.27 192.879L344.178 192.821L363.992 229.95V230.764H346.851Z" fill="black"/>
<path d="M471 392.295C471 391.26 471.354 390.389 472.061 389.682C472.768 388.974 473.726 388.621 474.934 388.621C476.141 388.621 477.099 388.974 477.806 389.682C478.514 390.389 478.867 391.26 478.867 392.295C478.867 393.313 478.514 394.176 477.806 394.883C477.099 395.573 476.141 395.918 474.934 395.918C473.726 395.918 472.768 395.573 472.061 394.883C471.354 394.176 471 393.313 471 392.295Z" fill="black"/>
<path d="M493.023 367.633V395.634H486.165V367.633H493.023ZM485.699 360.309C485.699 359.291 486.044 358.446 486.734 357.773C487.442 357.1 488.391 356.764 489.581 356.764C490.771 356.764 491.712 357.1 492.402 357.773C493.109 358.446 493.463 359.291 493.463 360.309C493.463 361.31 493.109 362.146 492.402 362.819C491.712 363.492 490.771 363.829 489.581 363.829C488.391 363.829 487.442 363.492 486.734 362.819C486.044 362.146 485.699 361.31 485.699 360.309Z" fill="black"/>
<path d="M498.328 381.918V381.375C498.328 379.321 498.621 377.432 499.208 375.707C499.795 373.965 500.649 372.455 501.77 371.178C502.891 369.902 504.263 368.91 505.885 368.202C507.507 367.478 509.353 367.115 511.423 367.115C513.528 367.115 515.391 367.478 517.013 368.202C518.652 368.91 520.032 369.902 521.153 371.178C522.275 372.455 523.129 373.965 523.715 375.707C524.302 377.432 524.595 379.321 524.595 381.375V381.918C524.595 383.954 524.302 385.843 523.715 387.585C523.129 389.311 522.275 390.82 521.153 392.114C520.032 393.391 518.66 394.383 517.039 395.09C515.417 395.798 513.562 396.151 511.475 396.151C509.404 396.151 507.55 395.798 505.911 395.09C504.272 394.383 502.891 393.391 501.77 392.114C500.649 390.82 499.795 389.311 499.208 387.585C498.621 385.843 498.328 383.954 498.328 381.918ZM505.16 381.375V381.918C505.16 383.143 505.281 384.29 505.522 385.36C505.764 386.43 506.135 387.37 506.635 388.181C507.136 388.992 507.783 389.63 508.576 390.096C509.387 390.544 510.353 390.769 511.475 390.769C512.579 390.769 513.528 390.544 514.321 390.096C515.115 389.63 515.762 388.992 516.262 388.181C516.78 387.37 517.159 386.43 517.401 385.36C517.642 384.29 517.763 383.143 517.763 381.918V381.375C517.763 380.167 517.642 379.037 517.401 377.984C517.159 376.915 516.78 375.974 516.262 375.164C515.762 374.335 515.106 373.688 514.295 373.223C513.502 372.74 512.544 372.498 511.423 372.498C510.319 372.498 509.37 372.74 508.576 373.223C507.783 373.688 507.136 374.335 506.635 375.164C506.135 375.974 505.764 376.915 505.522 377.984C505.281 379.037 505.16 380.167 505.16 381.375Z" fill="black"/>
</svg>
